<svg xmlns="http://www.w3.org/2000/svg" viewBox="0 0 512 512">
  <defs>
    <linearGradient id="bg" x1="0%" y1="0%" x2="100%" y2="100%">
      <stop offset="0%" style="stop-color:#1e3a5f"/>
      <stop offset="100%" style="stop-color:#0b1120"/>
    </linearGradient>
    <linearGradient id="accent" x1="0%" y1="0%" x2="100%" y2="100%">
      <stop offset="0%" style="stop-color:#3b82f6"/>
      <stop offset="100%" style="stop-color:#1d4ed8"/>
    </linearGradient>
  </defs>
  
  <!-- Background -->
  <rect width="512" height="512" rx="96" fill="url(#bg)"/>
  
  <!-- Ship/Anchor Symbol -->
  <g transform="translate(256, 256)">
    <!-- Fuel drop -->
    <path d="M0,-120 C60,-60 80,20 80,80 C80,140 40,180 0,180 C-40,180 -80,140 -80,80 C-80,20 -60,-60 0,-120 Z" 
          fill="url(#accent)" opacity="0.9"/>
    
    <!-- A letter stylized -->
    <path d="M0,-60 L-40,60 L-20,60 L-10,30 L10,30 L20,60 L40,60 L0,-60 Z M0,-20 L-5,15 L5,15 Z" 
          fill="white" fill-rule="evenodd"/>
  </g>
  
  <!-- Decorative waves -->
  <path d="M80,420 Q130,400 180,420 Q230,440 280,420 Q330,400 380,420 Q430,440 432,420" 
        stroke="rgba(255,255,255,0.3)" stroke-width="8" fill="none" stroke-linecap="round"/>
</svg>
